<svg clip-rule="evenodd" fill-rule="evenodd" stroke-linejoin="round" stroke-miterlimit="2" viewBox="0 0 772 772" xmlns="http://www.w3.org/2000/svg" xmlns:xlink="http://www.w3.org/1999/xlink"><radialGradient id="a" cx="0" cy="0" gradientTransform="matrix(1574.88 -779.72 -779.72 -1574.88 0 772)" gradientUnits="userSpaceOnUse" r="1"><stop offset="0" stop-color="#3023ae"/><stop offset="1" stop-color="#c86dd7"/></radialGradient><path d="m0 0h1544v772h-1544z" fill="url(#a)" transform="matrix(.5 -0 0 -1 0 772)"/><g fill="#ff9414" fill-rule="nonzero" transform="translate(-340.265 -105.329)"><path d="m523.577 299h5.375c6.167 0 10.584-.792 13.25-2.375 2.667-1.583 4-4.125 4-7.625s-1.333-6.042-4-7.625c-2.666-1.583-7.083-2.375-13.25-2.375h-5.375zm0-38.25h4.5c7.667 0 11.5-3.042 11.5-9.125s-3.833-9.125-11.5-9.125h-4.5zm-24.5-37h36.5c8.667 0 15.25 2.083 19.75 6.25s6.75 10.167 6.75 18c0 4.75-.854 8.687-2.562 11.812s-4.313 5.771-7.813 7.938c3.5.667 6.48 1.687 8.938 3.062s4.458 3.063 6 5.063 2.646 4.25 3.312 6.75c.667 2.5 1 5.167 1 8 0 4.417-.77 8.333-2.312 11.75s-3.708 6.292-6.5 8.625-6.188 4.083-10.188 5.25-8.5 1.75-13.5 1.75h-39.375z"/><path d="m606.077 253.875v36.125c0 7.917 3.834 11.875 11.5 11.875 7.667 0 11.5-3.958 11.5-11.875v-36.125h22.625v40.5c0 8.667-2.854 15.167-8.562 19.5s-14.229 6.5-25.563 6.5c-11.333 0-19.854-2.167-25.562-6.5s-8.563-10.833-8.563-19.5v-40.5z"/><path d="m689.702 253.875v64.125h-22.625v-64.125zm-24.125-24.625c0-1.75.334-3.396 1-4.938.667-1.541 1.584-2.895 2.75-4.062 1.167-1.167 2.521-2.083 4.063-2.75s3.187-1 4.937-1 3.396.333 4.938 1 2.896 1.583 4.062 2.75c1.167 1.167 2.084 2.521 2.75 4.062.667 1.542 1 3.188 1 4.938s-.333 3.396-1 4.937c-.666 1.542-1.583 2.896-2.75 4.063-1.166 1.167-2.52 2.083-4.062 2.75s-3.188 1-4.938 1-3.395-.333-4.937-1-2.896-1.583-4.063-2.75c-1.166-1.167-2.083-2.521-2.75-4.063-.666-1.541-1-3.187-1-4.937z"/><path d="m705.202 214.25h22.625v103.75h-22.625z"/><path d="m764.327 285.75c0 2.083.375 4.021 1.125 5.812.75 1.792 1.771 3.355 3.063 4.688s2.833 2.375 4.625 3.125 3.729 1.125 5.812 1.125c2 0 3.896-.375 5.688-1.125s3.333-1.792 4.625-3.125 2.333-2.875 3.125-4.625 1.187-3.625 1.187-5.625-.395-3.896-1.187-5.688c-.792-1.791-1.833-3.354-3.125-4.687s-2.833-2.375-4.625-3.125-3.688-1.125-5.688-1.125-3.895.375-5.687 1.125-3.333 1.792-4.625 3.125-2.333 2.854-3.125 4.562c-.792 1.709-1.188 3.563-1.188 5.563zm28.5-71.5h22.75v103.75h-22.75v-7.125c-4.833 6.083-11.375 9.125-19.625 9.125-4.666 0-8.958-.875-12.875-2.625-3.916-1.75-7.333-4.167-10.25-7.25-2.916-3.083-5.187-6.708-6.812-10.875s-2.438-8.667-2.438-13.5c0-4.583.771-8.938 2.313-13.063s3.729-7.729 6.562-10.812c2.834-3.083 6.23-5.521 10.188-7.313 3.958-1.791 8.312-2.687 13.062-2.687 8 0 14.625 2.792 19.875 8.375z"/><path d="m877.827 276.625c-.75-3.167-2.291-5.708-4.625-7.625-2.333-1.917-5.166-2.875-8.5-2.875-3.5 0-6.354.917-8.562 2.75s-3.604 4.417-4.188 7.75zm-26.5 13.125c0 9.75 4.584 14.625 13.75 14.625 4.917 0 8.625-2 11.125-6h21.875c-4.416 14.667-15.458 22-33.125 22-5.416 0-10.375-.813-14.875-2.438s-8.354-3.937-11.562-6.937-5.688-6.583-7.438-10.75-2.625-8.833-2.625-14c0-5.333.834-10.146 2.5-14.438 1.667-4.291 4.042-7.937 7.125-10.937 3.084-3 6.813-5.313 11.188-6.938s9.312-2.437 14.812-2.437c5.417 0 10.292.812 14.625 2.437 4.334 1.625 8 3.98 11 7.063s5.292 6.854 6.875 11.312c1.584 4.459 2.375 9.48 2.375 15.063v2.375z"/><path d="m911.827 253.875h22.625v10.5c2.417-3.833 5.375-6.771 8.875-8.813 3.5-2.041 7.584-3.062 12.25-3.062h1.938c.708 0 1.521.083 2.437.25v21.625c-3-1.5-6.25-2.25-9.75-2.25-5.25 0-9.187 1.562-11.812 4.687s-3.938 7.688-3.938 13.688v27.5h-22.625z"/><path d="m420.94 384.258c-1.6-1.3-3.2-2.262-4.8-2.887s-3.15-.938-4.65-.938c-1.9 0-3.45.45-4.65 1.35s-1.8 2.075-1.8 3.525c0 1 .3 1.825.9 2.475s1.387 1.213 2.362 1.688 2.075.887 3.3 1.237 2.438.725 3.638 1.125c4.8 1.6 8.312 3.738 10.537 6.413s3.338 6.162 3.338 10.462c0 2.9-.488 5.525-1.463 7.875s-2.4 4.363-4.275 6.038-4.175 2.975-6.9 3.9-5.812 1.387-9.262 1.387c-7.15 0-13.775-2.125-19.875-6.375l6.3-11.85c2.2 1.95 4.375 3.4 6.525 4.35s4.275 1.425 6.375 1.425c2.4 0 4.187-.55 5.362-1.65s1.763-2.35 1.763-3.75c0-.85-.15-1.587-.45-2.212s-.8-1.2-1.5-1.725-1.613-1.013-2.738-1.463-2.487-.95-4.087-1.5c-1.9-.6-3.763-1.262-5.588-1.987s-3.45-1.688-4.875-2.888-2.575-2.712-3.45-4.537-1.312-4.138-1.312-6.938.462-5.337 1.387-7.612 2.225-4.225 3.9-5.85 3.725-2.888 6.15-3.788 5.138-1.35 8.138-1.35c2.8 0 5.725.388 8.775 1.163s5.975 1.912 8.775 3.412z"/><path d="m437.065 364.083h13.575v28.65c1.85-2.25 3.725-3.762 5.625-4.537s4.125-1.163 6.675-1.163c4.85 0 8.512 1.338 10.987 4.013s3.713 6.287 3.713 10.837v24.45h-13.575v-19.425c0-1.95-.15-3.525-.45-4.725s-.8-2.125-1.5-2.775c-1.2-1.05-2.65-1.575-4.35-1.575-2.3 0-4.063.688-5.288 2.063s-1.837 3.337-1.837 5.887v20.55h-13.575z"/><path d="m499.69 406.908c0 1.3.237 2.488.712 3.563s1.1 2.012 1.875 2.812 1.7 1.425 2.775 1.875 2.213.675 3.413.675 2.337-.225 3.412-.675 2-1.075 2.775-1.875 1.4-1.737 1.875-2.812.713-2.238.713-3.488c0-1.2-.238-2.337-.713-3.412s-1.1-2.013-1.875-2.813-1.7-1.425-2.775-1.875-2.212-.675-3.412-.675-2.338.225-3.413.675-2 1.075-2.775 1.875-1.4 1.725-1.875 2.775-.712 2.175-.712 3.375zm-14.325-.15c0-2.85.575-5.512 1.725-7.987s2.75-4.625 4.8-6.45 4.487-3.263 7.312-4.313 5.913-1.575 9.263-1.575c3.3 0 6.362.513 9.187 1.538s5.275 2.45 7.35 4.275 3.688 4 4.838 6.525 1.725 5.312 1.725 8.362-.588 5.838-1.763 8.363-2.787 4.7-4.837 6.525-4.513 3.237-7.388 4.237-5.987 1.5-9.337 1.5c-3.3 0-6.35-.5-9.15-1.5s-5.213-2.425-7.238-4.275-3.612-4.062-4.762-6.637-1.725-5.438-1.725-8.588z"/><path d="m539.365 387.858h13.575v6.3c1.45-2.3 3.225-4.062 5.325-5.287s4.55-1.838 7.35-1.838h1.162c.425 0 .913.05 1.463.15v12.975c-1.8-.9-3.75-1.35-5.85-1.35-3.15 0-5.513.938-7.088 2.813s-2.362 4.612-2.362 8.212v16.5h-13.575z"/><path d="m590.89 399.183v27.15h-13.575v-27.15h-4.5v-11.325h4.5v-11.55h13.575v11.55h7.725v11.325z"/><path d="m632.74 400.308c-2.35-1.6-4.725-2.4-7.125-2.4-1.3 0-2.513.225-3.638.675s-2.112 1.088-2.962 1.913-1.513 1.8-1.988 2.925-.712 2.387-.712 3.787c0 1.35.237 2.588.712 3.713s1.125 2.1 1.95 2.925 1.813 1.462 2.963 1.912 2.375.675 3.675.675c2.55 0 4.925-.875 7.125-2.625v11.55c-3.35 1.45-6.525 2.175-9.525 2.175-2.8 0-5.463-.475-7.988-1.425s-4.75-2.312-6.675-4.087-3.462-3.9-4.612-6.375-1.725-5.238-1.725-8.288.55-5.837 1.65-8.362 2.6-4.7 4.5-6.525 4.162-3.25 6.787-4.275 5.438-1.538 8.438-1.538c3.3 0 6.35.7 9.15 2.1z"/><path d="m653.29 406.908c0 1.3.237 2.488.712 3.563s1.1 2.012 1.875 2.812 1.7 1.425 2.775 1.875 2.213.675 3.413.675 2.337-.225 3.412-.675 2-1.075 2.775-1.875 1.4-1.737 1.875-2.812.713-2.238.713-3.488c0-1.2-.238-2.337-.713-3.412s-1.1-2.013-1.875-2.813-1.7-1.425-2.775-1.875-2.212-.675-3.412-.675-2.338.225-3.413.675-2 1.075-2.775 1.875-1.4 1.725-1.875 2.775-.712 2.175-.712 3.375zm-14.325-.15c0-2.85.575-5.512 1.725-7.987s2.75-4.625 4.8-6.45 4.487-3.263 7.312-4.313 5.913-1.575 9.263-1.575c3.3 0 6.362.513 9.187 1.538s5.275 2.45 7.35 4.275 3.688 4 4.838 6.525 1.725 5.312 1.725 8.362-.588 5.838-1.763 8.363-2.787 4.7-4.837 6.525-4.513 3.237-7.388 4.237-5.987 1.5-9.337 1.5c-3.3 0-6.35-.5-9.15-1.5s-5.213-2.425-7.238-4.275-3.612-4.062-4.762-6.637-1.725-5.438-1.725-8.588z"/><path d="m705.565 406.983c0 1.25.225 2.413.675 3.488s1.062 2.012 1.837 2.812 1.7 1.425 2.775 1.875 2.238.675 3.488.675c1.2 0 2.337-.225 3.412-.675s2-1.075 2.775-1.875 1.4-1.725 1.875-2.775.713-2.175.713-3.375-.238-2.337-.713-3.412-1.1-2.013-1.875-2.813-1.7-1.425-2.775-1.875-2.212-.675-3.412-.675-2.338.225-3.413.675-2 1.075-2.775 1.875-1.4 1.713-1.875 2.738-.712 2.137-.712 3.337zm17.1-42.9h13.65v62.25h-13.65v-4.275c-2.9 3.65-6.825 5.475-11.775 5.475-2.8 0-5.375-.525-7.725-1.575s-4.4-2.5-6.15-4.35-3.113-4.025-4.088-6.525-1.462-5.2-1.462-8.1c0-2.75.462-5.362 1.387-7.837s2.238-4.638 3.938-6.488 3.737-3.312 6.112-4.387 4.988-1.613 7.838-1.613c4.8 0 8.775 1.675 11.925 5.025z"/><path d="m773.665 401.508c-.45-1.9-1.375-3.425-2.775-4.575s-3.1-1.725-5.1-1.725c-2.1 0-3.813.55-5.138 1.65s-2.162 2.65-2.512 4.65zm-15.9 7.875c0 5.85 2.75 8.775 8.25 8.775 2.95 0 5.175-1.2 6.675-3.6h13.125c-2.65 8.8-9.275 13.2-19.875 13.2-3.25 0-6.225-.487-8.925-1.462s-5.013-2.363-6.938-4.163-3.412-3.95-4.462-6.45-1.575-5.3-1.575-8.4c0-3.2.5-6.087 1.5-8.662s2.425-4.763 4.275-6.563 4.087-3.187 6.712-4.162 5.588-1.463 8.888-1.463c3.25 0 6.175.488 8.775 1.463s4.8 2.387 6.6 4.237 3.175 4.113 4.125 6.788 1.425 5.687 1.425 9.037v1.425z"/><path d="m853.015 382.233h-17.475v9.45h16.5v12.45h-16.5v9.75h17.475v12.45h-32.175v-56.55h32.175z"/><path d="m876.865 405.483-15.6-17.625h17.7l6.6 7.95 6.75-7.95h17.7l-15.975 17.625 19.275 20.85h-18l-9.825-11.4-9.9 11.4h-17.925z"/><path d="m933.115 399.183v27.15h-13.575v-27.15h-4.5v-11.325h4.5v-11.55h13.575v11.55h7.725v11.325z"/><path d="m945.94 387.858h13.575v6.3c1.45-2.3 3.225-4.062 5.325-5.287s4.55-1.838 7.35-1.838h1.162c.425 0 .913.05 1.463.15v12.975c-1.8-.9-3.75-1.35-5.85-1.35-3.15 0-5.513.938-7.088 2.813s-2.362 4.612-2.362 8.212v16.5h-13.575z"/><path d="m993.94 406.983c0 1.25.225 2.413.675 3.488s1.062 2.012 1.837 2.812 1.7 1.425 2.775 1.875c1.073.45 2.243.675 3.493.675 1.2 0 2.33-.225 3.41-.675 1.07-.45 2-1.075 2.77-1.875.78-.8 1.4-1.725 1.88-2.775.47-1.05.71-2.175.71-3.375s-.24-2.337-.71-3.412c-.48-1.075-1.1-2.013-1.88-2.813-.77-.8-1.7-1.425-2.77-1.875-1.08-.45-2.21-.675-3.41-.675-1.25 0-2.42.225-3.493.675-1.075.45-2 1.075-2.775 1.875s-1.387 1.713-1.837 2.738-.675 2.137-.675 3.337zm17.1-19.125h13.65v38.475h-13.65v-4.275c-2.9 3.65-6.82 5.475-11.775 5.475-2.8 0-5.375-.512-7.725-1.537s-4.4-2.463-6.15-4.313-3.113-4.025-4.088-6.525-1.462-5.225-1.462-8.175c0-2.75.475-5.362 1.425-7.837s2.275-4.638 3.975-6.488 3.725-3.312 6.075-4.387 4.95-1.613 7.8-1.613c4.805 0 8.775 1.675 11.925 5.025z"/><path d="m1059.41 397.758c-2.5-1.3-4.95-1.95-7.34-1.95-1.25 0-2.27.25-3.04.75-.78.5-1.16 1.175-1.16 2.025 0 .45.06.813.18 1.088.13.275.4.537.83.787.42.25 1.05.475 1.87.675.83.2 1.91.45 3.27.75 3.75.75 6.55 2.088 8.39 4.013 1.86 1.925 2.78 4.387 2.78 7.387 0 2.25-.45 4.275-1.35 6.075s-2.15 3.313-3.75 4.538-3.52 2.175-5.77 2.85-4.73 1.012-7.43 1.012c-5.2 0-10.32-1.475-15.37-4.425l4.94-9.6c3.81 2.6 7.41 3.9 10.81 3.9 1.25 0 2.27-.275 3.07-.825s1.2-1.25 1.2-2.1c0-.5-.06-.912-.19-1.237-.12-.325-.39-.625-.78-.9-.41-.275-.99-.525-1.77-.75-.77-.225-1.78-.463-3.03-.713-4.2-.85-7.14-2.112-8.82-3.787-1.67-1.675-2.51-3.988-2.51-6.938 0-2.15.4-4.087 1.2-5.812s1.95-3.188 3.45-4.388 3.31-2.125 5.44-2.775c2.12-.65 4.49-.975 7.09-.975 4.25 0 8.37.825 12.37 2.475z"/></g><path d="m9 12h6m-3-3v6m-6 4c-1.097 0-2-.903-2-2v-4l-1-1 1-1v-4c0-1.097.903-2 2-2m12 14c1.097 0 2-.903 2-2v-4l1-1-1-1v-4c0-1.097-.903-2-2-2" fill="none" stroke="#adb8c2" stroke-width="1.23" transform="matrix(13.8816 -2.28056 2.28056 13.8816 192.055 439.375)"/></svg>