<svg clip-rule="evenodd" fill-rule="evenodd" stroke-linejoin="round" stroke-miterlimit="2" viewBox="0 0 772 772" xmlns="http://www.w3.org/2000/svg" xmlns:xlink="http://www.w3.org/1999/xlink"><radialGradient id="a" cx="0" cy="0" gradientTransform="matrix(1574.88 -779.72 -779.72 -1574.88 0 772)" gradientUnits="userSpaceOnUse" r="1"><stop offset="0" stop-color="#3023ae"/><stop offset="1" stop-color="#c86dd7"/></radialGradient><path d="m0 0h1544v772h-1544z" fill="url(#a)" transform="matrix(.5 -0 0 -1 0 772)"/><g fill="#ff9414" fill-rule="nonzero" transform="translate(-339.902 -144.225)"><path d="m564.002 302.8h4.3c4.934 0 8.467-.633 10.6-1.9 2.134-1.267 3.2-3.3 3.2-6.1s-1.066-4.833-3.2-6.1c-2.133-1.267-5.666-1.9-10.6-1.9h-4.3zm0-30.6h3.6c6.134 0 9.2-2.433 9.2-7.3s-3.066-7.3-9.2-7.3h-3.6zm-19.6-29.6h29.2c6.934 0 12.2 1.667 15.8 5s5.4 8.133 5.4 14.4c0 3.8-.683 6.95-2.05 9.45-1.366 2.5-3.45 4.617-6.25 6.35 2.8.533 5.184 1.35 7.15 2.45 1.967 1.1 3.567 2.45 4.8 4.05 1.234 1.6 2.117 3.4 2.65 5.4.534 2 .8 4.133.8 6.4 0 3.533-.616 6.667-1.85 9.4-1.233 2.733-2.966 5.033-5.2 6.9-2.233 1.867-4.95 3.267-8.15 4.2s-6.8 1.4-10.8 1.4h-31.5z"/><path d="m630.002 266.7v28.9c0 6.333 3.067 9.5 9.2 9.5 6.134 0 9.2-3.167 9.2-9.5v-28.9h18.1v32.4c0 6.933-2.283 12.133-6.85 15.6-4.566 3.467-11.383 5.2-20.45 5.2-9.066 0-15.883-1.733-20.45-5.2-4.566-3.467-6.85-8.667-6.85-15.6v-32.4z"/><path d="m696.902 266.7v51.3h-18.1v-51.3zm-19.3-19.7c0-1.4.267-2.717.8-3.95.534-1.233 1.267-2.317 2.2-3.25.934-.933 2.017-1.667 3.25-2.2 1.234-.533 2.55-.8 3.95-.8s2.717.267 3.95.8c1.234.533 2.317 1.267 3.25 2.2.934.933 1.667 2.017 2.2 3.25.534 1.233.8 2.55.8 3.95s-.266 2.717-.8 3.95c-.533 1.233-1.266 2.317-2.2 3.25-.933.933-2.016 1.667-3.25 2.2-1.233.533-2.55.8-3.95.8s-2.716-.267-3.95-.8c-1.233-.533-2.316-1.267-3.25-2.2-.933-.933-1.666-2.017-2.2-3.25-.533-1.233-.8-2.55-.8-3.95z"/><path d="m709.302 235h18.1v83h-18.1z"/><path d="m756.602 292.2c0 1.667.3 3.217.9 4.65s1.417 2.683 2.45 3.75c1.034 1.067 2.267 1.9 3.7 2.5 1.434.6 2.984.9 4.65.9 1.6 0 3.117-.3 4.55-.9 1.434-.6 2.667-1.433 3.7-2.5 1.034-1.067 1.867-2.3 2.5-3.7.634-1.4.95-2.9.95-4.5s-.316-3.117-.95-4.55c-.633-1.433-1.466-2.683-2.5-3.75-1.033-1.067-2.266-1.9-3.7-2.5-1.433-.6-2.95-.9-4.55-.9s-3.116.3-4.55.9c-1.433.6-2.666 1.433-3.7 2.5-1.033 1.067-1.866 2.283-2.5 3.65-.633 1.367-.95 2.85-.95 4.45zm22.8-57.2h18.2v83h-18.2v-5.7c-3.866 4.867-9.1 7.3-15.7 7.3-3.733 0-7.166-.7-10.3-2.1-3.133-1.4-5.866-3.333-8.2-5.8-2.333-2.467-4.15-5.367-5.45-8.7s-1.95-6.933-1.95-10.8c0-3.667.617-7.15 1.85-10.45 1.234-3.3 2.984-6.183 5.25-8.65 2.267-2.467 4.984-4.417 8.15-5.85 3.167-1.433 6.65-2.15 10.45-2.15 6.4 0 11.7 2.233 15.9 6.7z"/><path d="m847.402 284.9c-.6-2.533-1.833-4.567-3.7-6.1-1.866-1.533-4.133-2.3-6.8-2.3-2.8 0-5.083.733-6.85 2.2-1.766 1.467-2.883 3.533-3.35 6.2zm-21.2 10.5c0 7.8 3.667 11.7 11 11.7 3.934 0 6.9-1.6 8.9-4.8h17.5c-3.533 11.733-12.366 17.6-26.5 17.6-4.333 0-8.3-.65-11.9-1.95s-6.683-3.15-9.25-5.55c-2.566-2.4-4.55-5.267-5.95-8.6s-2.1-7.067-2.1-11.2c0-4.267.667-8.117 2-11.55 1.334-3.433 3.234-6.35 5.7-8.75 2.467-2.4 5.45-4.25 8.95-5.55s7.45-1.95 11.85-1.95c4.334 0 8.234.65 11.7 1.95 3.467 1.3 6.4 3.183 8.8 5.65s4.234 5.483 5.5 9.05c1.267 3.567 1.9 7.583 1.9 12.05v1.9z"/><path d="m874.602 266.7h18.1v8.4c1.934-3.067 4.3-5.417 7.1-7.05s6.067-2.45 9.8-2.45h1.55c.567 0 1.217.067 1.95.2v17.3c-2.4-1.2-5-1.8-7.8-1.8-4.2 0-7.35 1.25-9.45 3.75s-3.15 6.15-3.15 10.95v22h-18.1z"/><path d="m504.702 386.9c-2.133-1.733-4.266-3.017-6.4-3.85-2.133-.833-4.2-1.25-6.2-1.25-2.533 0-4.6.6-6.2 1.8s-2.4 2.767-2.4 4.7c0 1.333.4 2.433 1.2 3.3s1.85 1.617 3.15 2.25 2.767 1.183 4.4 1.65c1.634.467 3.25.967 4.85 1.5 6.4 2.133 11.084 4.983 14.05 8.55 2.967 3.567 4.45 8.217 4.45 13.95 0 3.867-.65 7.367-1.95 10.5s-3.2 5.817-5.7 8.05-5.566 3.967-9.2 5.2c-3.633 1.233-7.75 1.85-12.35 1.85-9.533 0-18.366-2.833-26.5-8.5l8.4-15.8c2.934 2.6 5.834 4.533 8.7 5.8 2.867 1.267 5.7 1.9 8.5 1.9 3.2 0 5.584-.733 7.15-2.2 1.567-1.467 2.35-3.133 2.35-5 0-1.133-.2-2.117-.6-2.95s-1.066-1.6-2-2.3c-.933-.7-2.15-1.35-3.65-1.95s-3.316-1.267-5.45-2c-2.533-.8-5.016-1.683-7.45-2.65-2.433-.967-4.6-2.25-6.5-3.85s-3.433-3.617-4.6-6.05c-1.166-2.433-1.75-5.517-1.75-9.25s.617-7.117 1.85-10.15c1.234-3.033 2.967-5.633 5.2-7.8 2.234-2.167 4.967-3.85 8.2-5.05 3.234-1.2 6.85-1.8 10.85-1.8 3.734 0 7.634.517 11.7 1.55 4.067 1.033 7.967 2.55 11.7 4.55z"/><path d="m526.202 360h18.1v38.2c2.467-3 4.967-5.017 7.5-6.05 2.534-1.033 5.5-1.55 8.9-1.55 6.467 0 11.35 1.783 14.65 5.35s4.95 8.383 4.95 14.45v32.6h-18.1v-25.9c0-2.6-.2-4.7-.6-6.3s-1.066-2.833-2-3.7c-1.6-1.4-3.533-2.1-5.8-2.1-3.066 0-5.416.917-7.05 2.75-1.633 1.833-2.45 4.45-2.45 7.85v27.4h-18.1z"/><path d="m609.702 417.1c0 1.733.317 3.317.95 4.75.634 1.433 1.467 2.683 2.5 3.75 1.034 1.067 2.267 1.9 3.7 2.5 1.434.6 2.95.9 4.55.9s3.117-.3 4.55-.9c1.434-.6 2.667-1.433 3.7-2.5 1.034-1.067 1.867-2.317 2.5-3.75.634-1.433.95-2.983.95-4.65 0-1.6-.316-3.117-.95-4.55-.633-1.433-1.466-2.683-2.5-3.75-1.033-1.067-2.266-1.9-3.7-2.5-1.433-.6-2.95-.9-4.55-.9s-3.116.3-4.55.9c-1.433.6-2.666 1.433-3.7 2.5-1.033 1.067-1.866 2.3-2.5 3.7-.633 1.4-.95 2.9-.95 4.5zm-19.1-.2c0-3.8.767-7.35 2.3-10.65 1.534-3.3 3.667-6.167 6.4-8.6 2.734-2.433 5.984-4.35 9.75-5.75 3.767-1.4 7.884-2.1 12.35-2.1 4.4 0 8.484.683 12.25 2.05 3.767 1.367 7.034 3.267 9.8 5.7 2.767 2.433 4.917 5.333 6.45 8.7 1.534 3.367 2.3 7.083 2.3 11.15s-.783 7.783-2.35 11.15c-1.566 3.367-3.716 6.267-6.45 8.7-2.733 2.433-6.016 4.317-9.85 5.65-3.833 1.333-7.983 2-12.45 2-4.4 0-8.466-.667-12.2-2-3.733-1.333-6.95-3.233-9.65-5.7s-4.816-5.417-6.35-8.85c-1.533-3.433-2.3-7.25-2.3-11.45z"/><path d="m662.602 391.7h18.1v8.4c1.934-3.067 4.3-5.417 7.1-7.05s6.067-2.45 9.8-2.45h1.55c.567 0 1.217.067 1.95.2v17.3c-2.4-1.2-5-1.8-7.8-1.8-4.2 0-7.35 1.25-9.45 3.75s-3.15 6.15-3.15 10.95v22h-18.1z"/><path d="m731.302 406.8v36.2h-18.1v-36.2h-6v-15.1h6v-15.4h18.1v15.4h10.3v15.1z"/><path d="m787.102 408.3c-3.133-2.133-6.3-3.2-9.5-3.2-1.733 0-3.35.3-4.85.9s-2.816 1.45-3.95 2.55c-1.133 1.1-2.016 2.4-2.65 3.9-.633 1.5-.95 3.183-.95 5.05 0 1.8.317 3.45.95 4.95.634 1.5 1.5 2.8 2.6 3.9s2.417 1.95 3.95 2.55c1.534.6 3.167.9 4.9.9 3.4 0 6.567-1.167 9.5-3.5v15.4c-4.466 1.933-8.7 2.9-12.7 2.9-3.733 0-7.283-.633-10.65-1.9-3.366-1.267-6.333-3.083-8.9-5.45-2.566-2.367-4.616-5.2-6.15-8.5-1.533-3.3-2.3-6.983-2.3-11.05s.734-7.783 2.2-11.15c1.467-3.367 3.467-6.267 6-8.7 2.534-2.433 5.55-4.333 9.05-5.7s7.25-2.05 11.25-2.05c4.4 0 8.467.933 12.2 2.8z"/><path d="m814.502 417.1c0 1.733.317 3.317.95 4.75.634 1.433 1.467 2.683 2.5 3.75 1.034 1.067 2.267 1.9 3.7 2.5 1.434.6 2.95.9 4.55.9s3.117-.3 4.55-.9c1.434-.6 2.667-1.433 3.7-2.5 1.034-1.067 1.867-2.317 2.5-3.75.634-1.433.95-2.983.95-4.65 0-1.6-.316-3.117-.95-4.55-.633-1.433-1.466-2.683-2.5-3.75-1.033-1.067-2.266-1.9-3.7-2.5-1.433-.6-2.95-.9-4.55-.9s-3.116.3-4.55.9c-1.433.6-2.666 1.433-3.7 2.5-1.033 1.067-1.866 2.3-2.5 3.7-.633 1.4-.95 2.9-.95 4.5zm-19.1-.2c0-3.8.767-7.35 2.3-10.65 1.534-3.3 3.667-6.167 6.4-8.6 2.734-2.433 5.984-4.35 9.75-5.75 3.767-1.4 7.884-2.1 12.35-2.1 4.4 0 8.484.683 12.25 2.05 3.767 1.367 7.034 3.267 9.8 5.7 2.767 2.433 4.917 5.333 6.45 8.7 1.534 3.367 2.3 7.083 2.3 11.15s-.783 7.783-2.35 11.15c-1.566 3.367-3.716 6.267-6.45 8.7-2.733 2.433-6.016 4.317-9.85 5.65-3.833 1.333-7.983 2-12.45 2-4.4 0-8.466-.667-12.2-2-3.733-1.333-6.95-3.233-9.65-5.7s-4.816-5.417-6.35-8.85c-1.533-3.433-2.3-7.25-2.3-11.45z"/><path d="m884.202 417.2c0 1.667.3 3.217.9 4.65s1.417 2.683 2.45 3.75c1.034 1.067 2.267 1.9 3.7 2.5 1.434.6 2.984.9 4.65.9 1.6 0 3.117-.3 4.55-.9 1.434-.6 2.667-1.433 3.7-2.5 1.034-1.067 1.867-2.3 2.5-3.7.634-1.4.95-2.9.95-4.5s-.316-3.117-.95-4.55c-.633-1.433-1.466-2.683-2.5-3.75-1.033-1.067-2.266-1.9-3.7-2.5-1.433-.6-2.95-.9-4.55-.9s-3.116.3-4.55.9c-1.433.6-2.666 1.433-3.7 2.5-1.033 1.067-1.866 2.283-2.5 3.65-.633 1.367-.95 2.85-.95 4.45zm22.8-57.2h18.2v83h-18.2v-5.7c-3.866 4.867-9.1 7.3-15.7 7.3-3.733 0-7.166-.7-10.3-2.1-3.133-1.4-5.866-3.333-8.2-5.8-2.333-2.467-4.15-5.367-5.45-8.7s-1.95-6.933-1.95-10.8c0-3.667.617-7.15 1.85-10.45 1.234-3.3 2.984-6.183 5.25-8.65 2.267-2.467 4.984-4.417 8.15-5.85 3.167-1.433 6.65-2.15 10.45-2.15 6.4 0 11.7 2.233 15.9 6.7z"/><path d="m975.002 409.9c-.6-2.533-1.833-4.567-3.7-6.1-1.866-1.533-4.133-2.3-6.8-2.3-2.8 0-5.083.733-6.85 2.2-1.766 1.467-2.883 3.533-3.35 6.2zm-21.2 10.5c0 7.8 3.667 11.7 11 11.7 3.934 0 6.9-1.6 8.9-4.8h17.5c-3.533 11.733-12.366 17.6-26.5 17.6-4.333 0-8.3-.65-11.9-1.95s-6.683-3.15-9.25-5.55c-2.566-2.4-4.55-5.267-5.95-8.6s-2.1-7.067-2.1-11.2c0-4.267.667-8.117 2-11.55 1.334-3.433 3.234-6.35 5.7-8.75 2.467-2.4 5.45-4.25 8.95-5.55s7.45-1.95 11.85-1.95c4.334 0 8.234.65 11.7 1.95 3.467 1.3 6.4 3.183 8.8 5.65s4.234 5.483 5.5 9.05c1.267 3.567 1.9 7.583 1.9 12.05v1.9z"/><path d="m608.152 509.2h-23.3v12.6h22v16.6h-22v13h23.3v16.6h-42.9v-75.4h42.9z"/><path d="m639.952 540.2-20.8-23.5h23.6l8.8 10.6 9-10.6h23.6l-21.3 23.5 25.7 27.8h-24l-13.1-15.2-13.2 15.2h-23.9z"/><path d="m714.952 531.8v36.2h-18.1v-36.2h-6v-15.1h6v-15.4h18.1v15.4h10.3v15.1z"/><path d="m732.052 516.7h18.1v8.4c1.934-3.067 4.3-5.417 7.1-7.05s6.067-2.45 9.8-2.45h1.55c.567 0 1.217.067 1.95.2v17.3c-2.4-1.2-5-1.8-7.8-1.8-4.2 0-7.35 1.25-9.45 3.75s-3.15 6.15-3.15 10.95v22h-18.1z"/><path d="m796.052 542.2c0 1.667.3 3.217.9 4.65s1.417 2.683 2.45 3.75c1.034 1.067 2.267 1.9 3.7 2.5 1.434.6 2.984.9 4.65.9 1.6 0 3.117-.3 4.55-.9 1.434-.6 2.667-1.433 3.7-2.5 1.034-1.067 1.867-2.3 2.5-3.7.634-1.4.95-2.9.95-4.5s-.316-3.117-.95-4.55c-.633-1.433-1.466-2.683-2.5-3.75-1.033-1.067-2.266-1.9-3.7-2.5-1.433-.6-2.95-.9-4.55-.9-1.666 0-3.216.3-4.65.9-1.433.6-2.666 1.433-3.7 2.5-1.033 1.067-1.85 2.283-2.45 3.65s-.9 2.85-.9 4.45zm22.8-25.5h18.2v51.3h-18.2v-5.7c-3.866 4.867-9.1 7.3-15.7 7.3-3.733 0-7.166-.683-10.3-2.05-3.133-1.367-5.866-3.283-8.2-5.75-2.333-2.467-4.15-5.367-5.45-8.7s-1.95-6.967-1.95-10.9c0-3.667.634-7.15 1.9-10.45 1.267-3.3 3.034-6.183 5.3-8.65 2.267-2.467 4.967-4.417 8.1-5.85 3.134-1.433 6.6-2.15 10.4-2.15 6.4 0 11.7 2.233 15.9 6.7z"/><path d="m883.352 529.9c-3.333-1.733-6.6-2.6-9.8-2.6-1.666 0-3.016.333-4.05 1-1.033.667-1.55 1.567-1.55 2.7 0 .6.084 1.083.25 1.45.167.367.534.717 1.1 1.05.567.333 1.4.633 2.5.9s2.55.6 4.35 1c5 1 8.734 2.783 11.2 5.35 2.467 2.567 3.7 5.85 3.7 9.85 0 3-.6 5.7-1.8 8.1s-2.866 4.417-5 6.05c-2.133 1.633-4.7 2.9-7.7 3.8s-6.3 1.35-9.9 1.35c-6.933 0-13.766-1.967-20.5-5.9l6.6-12.8c5.067 3.467 9.867 5.2 14.4 5.2 1.667 0 3.034-.367 4.1-1.1 1.067-.733 1.6-1.667 1.6-2.8 0-.667-.083-1.217-.25-1.65-.166-.433-.516-.833-1.05-1.2-.533-.367-1.316-.7-2.35-1-1.033-.3-2.383-.617-4.05-.95-5.6-1.133-9.516-2.817-11.75-5.05-2.233-2.233-3.35-5.317-3.35-9.25 0-2.867.534-5.45 1.6-7.75 1.067-2.3 2.6-4.25 4.6-5.85s4.417-2.833 7.25-3.7c2.834-.867 5.984-1.3 9.45-1.3 5.667 0 11.167 1.1 16.5 3.3z"/></g><path d="m9 12h6m-3-3v6m-6 4c-1.097 0-2-.903-2-2v-4l-1-1 1-1v-4c0-1.097.903-2 2-2m12 14c1.097 0 2-.903 2-2v-4l1-1-1-1v-4c0-1.097-.903-2-2-2" fill="none" stroke="#adb8c2" stroke-width="1.49" transform="matrix(11.4696 -1.88431 1.88431 11.4696 225.752 486.013)"/></svg>